<svg xmlns="http://www.w3.org/2000/svg" viewBox="0 0 64 64" role="img" aria-label="Linked enemy train command node">
  <defs>
    <radialGradient id="core" cx="50%" cy="45%" r="46%">
      <stop offset="0" stop-color="#ffffff"/>
      <stop offset="0.32" stop-color="#baffff"/>
      <stop offset="0.7" stop-color="#39d5ff" stop-opacity="0.76"/>
      <stop offset="1" stop-color="#0a2434" stop-opacity="0.05"/>
    </radialGradient>
    <linearGradient id="rim" x1="9" y1="11" x2="55" y2="53" gradientUnits="userSpaceOnUse">
      <stop offset="0" stop-color="#fff0a8"/>
      <stop offset="0.46" stop-color="#7ef5ff"/>
      <stop offset="1" stop-color="#ff7f9b"/>
    </linearGradient>
    <filter id="glow" x="-45%" y="-45%" width="190%" height="190%">
      <feGaussianBlur stdDeviation="2.6" result="blur"/>
      <feMerge>
        <feMergeNode in="blur"/>
        <feMergeNode in="SourceGraphic"/>
      </feMerge>
    </filter>
  </defs>
  <g filter="url(#glow)">
    <path d="M32 6 L52 18 L52 42 L32 58 L12 42 L12 18 Z" fill="#071726" opacity="0.72"/>
    <path d="M32 9 L49 20 L49 40 L32 54 L15 40 L15 20 Z" fill="none" stroke="url(#rim)" stroke-width="3.2" stroke-linejoin="round"/>
    <path d="M32 13 L43 23 L39 43 L32 49 L25 43 L21 23 Z" fill="rgba(16, 45, 62, 0.68)" stroke="#7ef5ff" stroke-width="1.8"/>
    <circle cx="32" cy="32" r="11" fill="url(#core)"/>
    <circle cx="32" cy="32" r="17" fill="none" stroke="#ffdf7a" stroke-width="1.4" stroke-dasharray="5 5" opacity="0.82"/>
    <path d="M32 7 V1 M32 63 V57 M7 32 H1 M63 32 H57" stroke="#7ef5ff" stroke-width="2.2" stroke-linecap="round"/>
  </g>
</svg>
